<svg width="32" height="32" viewBox="0 0 24 24" fill="none" xmlns="http://www.w3.org/2000/svg">
  <!-- AI Brain Icon from Hugeicons -->
  <path d="M2.5 12C2.5 7.52166 2.5 5.28249 3.89124 3.89124C5.28249 2.5 7.52166 2.5 12 2.5C16.4783 2.5 18.7175 2.5 20.1088 3.89124C21.5 5.28249 21.5 7.52166 21.5 12C21.5 16.4783 21.5 18.7175 20.1088 20.1088C18.7175 21.5 16.4783 21.5 12 21.5C7.52166 21.5 5.28249 21.5 3.89124 20.1088C2.5 18.7175 2.5 16.4783 2.5 12Z" fill="#3B82F6"/>
  <path fill-rule="evenodd" clip-rule="evenodd" d="M12 7.25C11.5858 7.25 11.25 7.58579 11.25 8V10C11.25 10.4142 11.5858 10.75 12 10.75C12.4142 10.75 12.75 10.4142 12.75 10V8C12.75 7.58579 12.4142 7.25 12 7.25ZM7.75 12C7.75 11.5858 8.08579 11.25 8.5 11.25H10.5C10.9142 11.25 11.25 11.5858 11.25 12C11.25 12.4142 10.9142 12.75 10.5 12.75H8.5C8.08579 12.75 7.75 12.4142 7.75 12ZM12.75 12C12.75 11.5858 13.0858 11.25 13.5 11.25H15.5C15.9142 11.25 16.25 11.5858 16.25 12C16.25 12.4142 15.9142 12.75 15.5 12.75H13.5C13.0858 12.75 12.75 12.4142 12.75 12ZM9 14.25C8.58579 14.25 8.25 14.5858 8.25 15C8.25 15.4142 8.58579 15.75 9 15.75H15C15.4142 15.75 15.75 15.4142 15.75 15C15.75 14.5858 15.4142 14.25 15 14.25H9Z" fill="white"/>
</svg>

